<?xml version="1.0" encoding="UTF-8"?>
<svg width="24px" height="24px" viewBox="0 0 24 24" version="1.1" xmlns="http://www.w3.org/2000/svg">
    <g stroke="none" stroke-width="1" fill="none" fill-rule="evenodd">
        <path d="M8.691,2.188 C4.891,2.188 1.813,4.813 1.813,8.063 C1.813,9.75 2.688,11.25 4.063,12.313 L3.188,14.375 L5.438,13.625 C6.438,14.125 7.563,14.375 8.75,14.375 C12.563,14.375 15.625,11.813 15.625,8.563 C15.625,5.313 12.563,2.188 8.691,2.188 M8.75,13.125 C7.813,13.125 6.875,12.875 6.063,12.375 L5.813,12.25 L3.875,12.875 L4.563,11.125 L4.375,10.875 C3.813,10 3.5,9 3.5,7.875 C3.5,5.125 5.875,2.875 8.75,2.875 C11.625,2.875 14,5.125 14,7.875 C14,10.625 11.625,13.125 8.75,13.125 M17.188,6.375 C17.813,6.375 18.375,6.5 18.875,6.75 C18.875,8.625 17.813,10.25 16.188,11.125 L15.938,11.25 L14,11.875 L14.688,10.125 L14.5,9.875 C14.125,9.25 13.938,8.5 13.938,7.75 C13.938,7.125 14.063,6.5 14.313,5.875 C15.188,6.125 16.188,6.375 17.188,6.375 M20.313,4.375 C20.313,6.625 18.875,8.5 16.875,9.375 C16.875,11.25 15.313,12.75 13.375,13.375 L11.438,14 L12.125,12.25 L11.938,12 C11.375,11.125 11.063,10.125 11.063,9 C11.063,6.25 13.438,4 16.313,4 C17.813,4 19.188,4.5 20.313,5.375" fill="#07C160" fill-rule="nonzero"></path>
    </g>
</svg> 