<?xml version="1.0" encoding="UTF-8"?>
<svg width="24" height="24" viewBox="0 0 24 24" fill="none" xmlns="http://www.w3.org/2000/svg">
    <path d="M11.8 10.9C9.53 10.31 8.8 9.7 8.8 8.75C8.8 7.66 9.81 6.9 11.5 6.9C13.28 6.9 13.94 7.75 14 9H16.21C16.14 7.28 15.09 5.7 13 5.19V3H10V5.16C8.06 5.58 6.5 6.84 6.5 8.77C6.5 10.08 7.23 11.23 8.5 11.84C10.07 12.58 10.54 13.25 10.6 14H13C12.95 13.28 12.5 12.5 11.8 12.18V10.9ZM12 20C7.59 20 4 16.41 4 12C4 7.59 7.59 4 12 4C16.41 4 20 7.59 20 12C20 16.41 16.41 20 12 20ZM12 2C6.48 2 2 6.48 2 12C2 17.52 6.48 22 12 22C17.52 22 22 17.52 22 12C22 6.48 17.52 2 12 2Z" fill="#07C160"/>
</svg> 