<svg t="1748416160405" class="icon" viewBox="0 0 1024 1024" version="1.1" xmlns="http://www.w3.org/2000/svg" p-id="8089" width="200" height="200"><path d="M512 298.666667a213.333333 213.333333 0 0 1 213.333333 213.333333 213.333333 213.333333 0 0 1-213.333333 213.333333 213.333333 213.333333 0 0 1-213.333333-213.333333 213.333333 213.333333 0 0 1 213.333333-213.333333m0 85.333333a128 128 0 0 0-128 128 128 128 0 0 0 128 128 128 128 0 0 0 128-128 128 128 0 0 0-128-128m0-298.666667l101.973333 145.92C582.4 219.733333 547.84 213.333333 512 213.333333c-35.84 0-70.4 6.4-101.973333 17.92L512 85.333333M142.506667 298.666667l177.493333-14.933334A307.2 307.2 0 0 0 253.44 362.666667c-18.773333 31.573333-29.44 64-35.413333 97.706666L142.506667 298.666667m0.853333 426.666666l75.093333-160.853333a304.256 304.256 0 0 0 101.546667 176.64L143.36 725.333333M881.066667 298.666667l-75.52 161.706666a299.648 299.648 0 0 0-101.546667-177.066666l177.066667 15.36m-0.426667 426.666666l-176.64 15.36c25.173333-21.76 47.786667-48.64 65.706667-79.36 17.92-31.146667 29.44-64 35.413333-97.706666L880.64 725.333333M512 938.666667l-102.826667-146.773334c31.573333 11.52 66.133333 18.773333 102.826667 18.773334 34.986667 0 69.546667-7.253333 101.12-18.773334L512 938.666667z" fill="" p-id="8090"></path></svg>